<?xml version="1.0" encoding="UTF-8" standalone="no"?>
<!DOCTYPE svg PUBLIC "-//W3C//DTD SVG 1.1//EN" "http://www.w3.org/Graphics/SVG/1.1/DTD/svg11.dtd">
<svg version="1.1" xmlns="http://www.w3.org/2000/svg" xmlns:xlink="http://www.w3.org/1999/xlink" preserveAspectRatio="xMidYMid meet" viewBox="0 0 640 640" width="640" height="640"><defs><path d="M373.41 281.96C373.41 311.25 346.28 335.02 312.85 335.02C279.42 335.02 252.28 311.25 252.28 281.96C252.28 252.68 279.42 228.9 312.85 228.9C346.28 228.9 373.41 252.68 373.41 281.96Z" id="a3e6Gphk3"></path><path d="M406.24 348.82L400.83 350.2L395.29 351.5L389.63 352.7L383.84 353.81L377.94 354.83L371.92 355.75L365.8 356.57L359.58 357.28L353.27 357.9L346.86 358.4L340.37 358.8L333.8 359.09L327.16 359.26L320.45 359.32L319.77 359.32L319.09 359.32L312.38 359.26L305.73 359.09L299.16 358.8L292.67 358.4L286.27 357.9L279.95 357.28L273.73 356.57L267.61 355.75L261.6 354.83L255.69 353.81L249.91 352.7L244.24 351.5L238.7 350.2L233.29 348.82L231.02 348.19L231.02 325.8L231.93 326.01L237.34 327.17L242.88 328.26L248.55 329.27L254.33 330.2L260.24 331.06L266.25 331.83L272.37 332.52L278.59 333.12L284.91 333.64L291.31 334.06L297.8 334.4L304.37 334.64L311.01 334.78L317.73 334.83L324.44 334.78L331.08 334.64L337.65 334.4L344.14 334.06L350.54 333.64L356.86 333.12L363.08 332.52L369.2 331.83L375.21 331.06L381.12 330.2L386.91 329.27L392.57 328.26L398.11 327.17L403.52 326.01L408.79 324.78L408.98 324.73L408.98 348.06L406.24 348.82Z" id="a2Axn74gl"></path><path d="M229.85 239.51L224.72 240.81L223.84 241.05L219.74 242.18L218.98 242.41L214.91 243.62L214.29 243.82L210.24 245.13L205.73 246.69L201.39 248.32L197.23 250.01L193.24 251.75L193.05 251.84L189.44 253.55L189.44 253.55L187.33 254.64L186.81 255.35L185.66 257.07L184.58 258.83L183.58 260.63L182.64 262.48L181.77 264.36L180.98 266.29L180.26 268.24L179.62 270.24L179.06 272.26L178.58 274.32L178.19 276.41L177.88 278.52L177.65 280.66L177.52 282.82L177.47 285.01L177.52 287.19L177.65 289.36L177.88 291.5L178.19 293.61L178.29 294.17L178.9 296.06L179.62 298.02L180.41 299.94L181.28 301.82L182.21 303.67L183.22 305.47L184.3 307.24L185.45 308.95L186.66 310.62L186.78 310.78L190.52 312.55L194.51 314.29L198.67 315.98L203.01 317.61L207.52 319.17L212.19 320.68L217.02 322.12L222 323.49L227.13 324.79L231.02 325.71L231.02 348.07L228.49 347.37L223.36 345.81L218.38 344.18L213.55 342.46L208.88 340.67L204.37 338.81L200.03 336.87L195.87 334.86L191.88 332.78L188.08 330.64L185.86 329.29L185.32 329L183.27 327.83L181.29 326.59L179.36 325.29L177.49 323.93L175.69 322.52L173.96 321.05L172.3 319.53L170.71 317.96L169.19 316.34L168.32 315.33L167.08 314L164.94 311.41L163.03 308.78L162.31 307.61L161.67 306.74L160.01 304.06L158.58 301.34L157.4 298.59L156.48 295.8L155.81 292.97L155.4 290.12L155.27 287.23L155.34 285.64L155.32 285.36L155.28 283.52L155.27 283.17L155.31 281.33L155.32 281.24L155.27 279.29L155.32 277.11L155.35 276.75L155.27 275.03L155.4 272.14L155.81 269.29L156.48 266.46L157.4 263.67L158.58 260.92L160.01 258.2L161.67 255.53L163.58 252.89L165.72 250.31L166.96 248.97L167.83 247.96L169.34 246.34L170.94 244.77L172.6 243.25L174.33 241.78L176.13 240.37L178 239.01L179.93 237.71L181.91 236.48L183.96 235.3L184.5 235.02L186.72 233.66L190.52 231.52L194.51 229.44L198.67 227.43L203.01 225.49L207.52 223.63L212.19 221.84L217.02 220.12L222 218.49L227.13 216.94L231.02 215.85L231.02 239.23L229.85 239.51Z" id="a1fd20m9yl"></path><path d="M333.8 205.53L340.37 205.81L346.86 206.21L353.27 206.72L359.58 207.33L359.58 207.33L365.8 208.05L365.8 208.05L371.92 208.87L377.94 209.79L383.84 210.8L383.84 210.8L389.63 211.92L395.29 213.12L400.83 214.42L406.24 215.8L408.98 216.56L408.98 239.89L408.79 239.84L403.52 238.61L398.11 237.44L392.57 236.36L386.91 235.35L381.12 234.41L375.21 233.56L369.2 232.79L363.08 232.1L356.86 231.5L350.54 230.98L344.14 230.56L337.65 230.22L331.08 229.98L324.44 229.83L317.73 229.78L311.01 229.83L304.37 229.98L297.8 230.22L291.31 230.56L284.91 230.98L278.59 231.5L272.37 232.1L266.25 232.79L260.24 233.56L254.33 234.41L248.55 235.35L242.88 236.36L237.34 237.44L231.93 238.61L231.02 238.82L231.02 216.43L233.29 215.8L238.7 214.42L244.24 213.12L249.91 211.92L255.69 210.8L261.6 209.79L267.61 208.87L273.73 208.05L279.95 207.33L286.27 206.72L292.67 206.21L299.16 205.81L305.73 205.53L312.38 205.35L319.09 205.29L319.76 205.3L320.45 205.3L320.45 205.29L327.16 205.35L333.8 205.53Z" id="b19v0W4pOk"></path><path d="M418 218.49L422.98 220.12L427.81 221.84L432.48 223.63L436.99 225.49L441.33 227.43L445.49 229.44L449.48 231.52L453.28 233.66L455.5 235.02L456.04 235.3L458.09 236.48L460.07 237.71L462 239.01L463.87 240.37L465.67 241.78L467.4 243.25L469.06 244.77L470.66 246.34L472.17 247.96L473.04 248.97L474.28 250.31L476.42 252.89L478.33 255.53L479.99 258.2L481.42 260.92L482.6 263.67L483.52 266.46L484.19 269.29L484.6 272.14L484.73 275.03L484.65 276.75L484.68 277.11L484.73 279.29L484.69 281.24L484.69 281.33L484.73 283.17L484.68 285.36L484.66 285.64L484.73 287.23L484.6 290.12L484.19 292.97L483.52 295.8L482.6 298.59L481.42 301.34L479.99 304.06L478.33 306.74L477.69 307.61L476.97 308.78L475.06 311.41L472.92 314L471.68 315.33L470.81 316.34L469.29 317.96L467.7 319.53L466.04 321.05L464.31 322.52L462.51 323.93L460.64 325.29L458.71 326.59L456.73 327.83L454.68 329L454.14 329.29L451.92 330.64L448.12 332.78L444.13 334.86L439.97 336.87L435.63 338.81L431.12 340.67L426.45 342.46L421.62 344.18L416.64 345.81L411.51 347.37L408.98 348.07L408.98 325.71L412.87 324.79L418 323.49L422.98 322.12L427.81 320.68L432.48 319.17L436.99 317.61L441.33 315.98L445.49 314.29L449.48 312.55L453.22 310.78L453.34 310.62L454.55 308.95L455.7 307.24L456.78 305.47L457.79 303.67L458.72 301.82L459.59 299.94L460.38 298.02L461.1 296.06L461.71 294.17L461.81 293.61L462.12 291.5L462.35 289.36L462.48 287.19L462.53 285.01L462.48 282.82L462.35 280.66L462.12 278.52L461.81 276.41L461.42 274.32L460.94 272.26L460.38 270.24L459.74 268.24L459.02 266.29L458.23 264.36L457.36 262.48L456.42 260.63L455.42 258.83L454.34 257.07L453.19 255.35L452.67 254.64L450.56 253.55L450.56 253.55L446.95 251.84L446.76 251.75L442.77 250.01L438.61 248.32L434.27 246.69L430.23 245.29L429.76 245.13L425.71 243.82L425.09 243.62L420.26 242.18L416.16 241.05L415.28 240.81L410.15 239.51L408.98 239.23L408.98 215.85L412.87 216.94L418 218.49Z" id="aDsRyhhN3"></path></defs><g><g><g><use xlink:href="#a3e6Gphk3" opacity="0.5" fill="#ff0000" fill-opacity="1"></use><g><use xlink:href="#a3e6Gphk3" opacity="0.5" fill-opacity="0" stroke="#e2570d" stroke-width="0" stroke-opacity="1"></use></g></g><g><use xlink:href="#a2Axn74gl" opacity="0.5" fill="#ff0000" fill-opacity="1"></use></g><g><use xlink:href="#a1fd20m9yl" opacity="0.5" fill="#ff0000" fill-opacity="1"></use></g><g><use xlink:href="#b19v0W4pOk" opacity="0.5" fill="#ff0000" fill-opacity="1"></use></g><g><use xlink:href="#aDsRyhhN3" opacity="0.5" fill="#ff0000" fill-opacity="1"></use></g></g></g></svg>